<svg width="1600" height="900" viewBox="0 0 1600 900" fill="none" xmlns="http://www.w3.org/2000/svg">
  <rect width="1600" height="900" fill="#07111F"></rect>
  <g opacity="0.9">
    <ellipse cx="230" cy="120" rx="310" ry="220" fill="url(#paint0_radial)"></ellipse>
    <ellipse cx="1360" cy="120" rx="260" ry="180" fill="url(#paint1_radial)"></ellipse>
    <ellipse cx="900" cy="760" rx="520" ry="220" fill="url(#paint2_radial)"></ellipse>
  </g>

  <g opacity="0.18">
    <path d="M0 650C120 600 210 610 320 645C440 683 520 692 650 650C788 605 860 610 990 662C1120 714 1210 706 1320 662C1430 618 1510 612 1600 640V900H0V650Z" fill="#2C63FF"></path>
    <path d="M0 705C95 664 214 668 330 710C438 748 548 754 660 714C796 665 910 672 1010 716C1135 772 1270 772 1380 728C1460 696 1528 690 1600 710V900H0V705Z" fill="#28D7C5"></path>
  </g>

  <g opacity="0.2" stroke="white" stroke-width="1">
    <path d="M0 190H1600"></path>
    <path d="M0 310H1600"></path>
    <path d="M0 430H1600"></path>
    <path d="M0 550H1600"></path>
    <path d="M0 670H1600"></path>
    <path d="M220 0V900"></path>
    <path d="M440 0V900"></path>
    <path d="M660 0V900"></path>
    <path d="M880 0V900"></path>
    <path d="M1100 0V900"></path>
    <path d="M1320 0V900"></path>
  </g>

  <g opacity="0.22">
    <circle cx="380" cy="520" r="6" fill="white"></circle>
    <circle cx="420" cy="540" r="4" fill="white"></circle>
    <circle cx="470" cy="510" r="5" fill="white"></circle>
    <circle cx="1020" cy="460" r="6" fill="white"></circle>
    <circle cx="1075" cy="495" r="4" fill="white"></circle>
    <circle cx="1135" cy="468" r="5" fill="white"></circle>
    <circle cx="1240" cy="360" r="5" fill="white"></circle>
  </g>

  <g opacity="0.75">
    <path d="M320 500L430 452L560 488L615 430L760 455L845 400L950 435L1045 396L1180 428" stroke="#8ED0FF" stroke-width="2.5" stroke-linecap="round" stroke-linejoin="round"></path>
    <path d="M320 500L430 452L560 488L615 430L760 455L845 400L950 435L1045 396L1180 428" stroke="url(#paint3_linear)" stroke-width="8" stroke-linecap="round" stroke-linejoin="round" opacity="0.15"></path>
  </g>

  <g opacity="0.8">
    <rect x="1070" y="210" width="270" height="154" rx="24" fill="rgba(255,255,255,0.08)"></rect>
    <rect x="1070" y="210" width="270" height="154" rx="24" fill="url(#paint4_linear)"></rect>
    <rect x="1096" y="236" width="108" height="10" rx="5" fill="white" fill-opacity="0.82"></rect>
    <rect x="1096" y="258" width="184" height="8" rx="4" fill="white" fill-opacity="0.32"></rect>
    <rect x="1096" y="284" width="220" height="44" rx="14" fill="white" fill-opacity="0.06"></rect>
    <circle cx="1288" cy="248" r="10" fill="#28D7C5"></circle>
  </g>

  <defs>
    <radialGradient id="paint0_radial" cx="0" cy="0" r="1" gradientUnits="userSpaceOnUse" gradientTransform="translate(230 120) rotate(90) scale(220 310)">
      <stop stop-color="#2C63FF" stop-opacity="0.42"></stop>
      <stop offset="1" stop-color="#2C63FF" stop-opacity="0"></stop>
    </radialGradient>
    <radialGradient id="paint1_radial" cx="0" cy="0" r="1" gradientUnits="userSpaceOnUse" gradientTransform="translate(1360 120) rotate(90) scale(180 260)">
      <stop stop-color="#28D7C5" stop-opacity="0.34"></stop>
      <stop offset="1" stop-color="#28D7C5" stop-opacity="0"></stop>
    </radialGradient>
    <radialGradient id="paint2_radial" cx="0" cy="0" r="1" gradientUnits="userSpaceOnUse" gradientTransform="translate(900 760) rotate(90) scale(220 520)">
      <stop stop-color="#1A355C" stop-opacity="0.7"></stop>
      <stop offset="1" stop-color="#1A355C" stop-opacity="0"></stop>
    </radialGradient>
    <linearGradient id="paint3_linear" x1="320" y1="450" x2="1180" y2="450" gradientUnits="userSpaceOnUse">
      <stop stop-color="#2C63FF"></stop>
      <stop offset="1" stop-color="#28D7C5"></stop>
    </linearGradient>
    <linearGradient id="paint4_linear" x1="1070" y1="210" x2="1340" y2="364" gradientUnits="userSpaceOnUse">
      <stop stop-color="white" stop-opacity="0.08"></stop>
      <stop offset="1" stop-color="white" stop-opacity="0.03"></stop>
    </linearGradient>
  </defs>
</svg>