<svg xmlns="http://www.w3.org/2000/svg" xmlns:xlink="http://www.w3.org/1999/xlink" width="173.8" height="67" viewBox="0 0 173.8 67">
  <defs>
    <clipPath id="clip-Logo-tr_1">
      <rect width="173.8" height="67"/>
    </clipPath>
  </defs>
  <g id="Logo-tr_1" data-name="Logo-tr–1" clip-path="url(#clip-Logo-tr_1)">
    <rect width="173.8" height="67" fill="#fff"/>
    <g id="logo-full" transform="translate(0.502 -2.8)">
      <path id="Path_1" data-name="Path 1" d="M256.011,46.293,272.3,34.9,265.96,53.574l-1.778,5.5L261.9,65.3l-6.5,18.674" transform="translate(-113.369 -14.26)" fill="#ed3435"/>
      <path id="Path_2" data-name="Path 2" d="M239.662,24.586,221.1,18.139l18.785-5.947,5.446-1.778,6.336-1.834,18.84-5.78" transform="translate(-98.132 0)" fill="#294099"/>
      <path id="Path_3" data-name="Path 3" d="M9.7,51.133,9.315,53.3a.477.477,0,0,1-.389.333h-2.5L4.757,62.971a.477.477,0,0,1-.389.333H1.645a.263.263,0,0,1-.278-.278v-.056l1.667-9.337H.478A.263.263,0,0,1,.2,53.357V53.3l.389-2.167A.477.477,0,0,1,.978,50.8H9.426a.311.311,0,0,1,.278.333Z" transform="translate(0 -21.323)" fill="#888d92"/>
      <path id="Path_4" data-name="Path 4" d="M29,48.557l-1.278,7.392c-.667,3.89-2.612,4.891-5.947,4.891-1.945,0-4.279-1.112-4.279-4a7.594,7.594,0,0,1,.111-1.056l1.278-7.225a.484.484,0,0,1,.445-.333h2.723a.263.263,0,0,1,.278.278v.056l-1.278,7.392a3.937,3.937,0,0,0-.056.778c0,.889.445,1.223,1.389,1.223,1.167,0,1.778-.5,2.056-2l1.278-7.392a.477.477,0,0,1,.389-.333h2.723c.056,0,.167.167.167.333Zm-5.113-3.223L23.613,47a.552.552,0,0,1-.445.333H21.224a.311.311,0,0,1-.333-.278V47l.278-1.667A.552.552,0,0,1,21.613,45h1.945a.3.3,0,0,1,.333.333Zm3.946,0L27.559,47a.552.552,0,0,1-.445.333H25.17a.263.263,0,0,1-.278-.278V47l.278-1.667A.552.552,0,0,1,25.614,45h1.945a.313.313,0,0,1,.278.333Z" transform="translate(-7.685 -18.747)" fill="#888d92"/>
      <path id="Path_5" data-name="Path 5" d="M46.959,58.114l1.612,4.557v.111a.32.32,0,0,1-.333.333H45.291c-.167,0-.222-.167-.278-.333l-1.389-4.057a7.449,7.449,0,0,1-1.112-.056l-.722,4.113a.477.477,0,0,1-.389.333H38.678a.263.263,0,0,1-.278-.278v-.056l1.945-10.949c.111-.778.445-1,1.167-1.112a24.944,24.944,0,0,1,3.5-.222c2.668,0,4.668.945,4.668,3.279a4.378,4.378,0,0,1-2.723,4.335M44.736,53.39a9.851,9.851,0,0,0-1.334.056l-.445,2.668H44.18c1.334,0,2.056-.5,2.056-1.834,0-.611-.445-.889-1.5-.889" transform="translate(-16.97 -21.19)" fill="#888d92"/>
      <path id="Path_6" data-name="Path 6" d="M72.294,51.189,67.57,57.025l2.612,5.891a.194.194,0,0,0,.056.111.254.254,0,0,1-.278.222H66.625c-.222,0-.278-.111-.278-.278l-2.112-5.446-.945,5.446a.477.477,0,0,1-.389.333H60.178a.263.263,0,0,1-.278-.278v-.056l2.056-11.782a.477.477,0,0,1,.389-.333h2.723a.263.263,0,0,1,.278.278v.056L64.4,56.358l4.057-5.28A.5.5,0,0,1,68.9,50.8h3.335c.111,0,.222.056.222.167-.056.056-.111.167-.167.222" transform="translate(-26.521 -21.323)" fill="#888d92"/>
      <path id="Path_7" data-name="Path 7" d="M93.838,51.133,91.782,62.916a.477.477,0,0,1-.389.333H88.669a.263.263,0,0,1-.278-.278v-.056l.778-4.557h-3.5l-.778,4.557a.477.477,0,0,1-.389.333H81.778a.263.263,0,0,1-.278-.278v-.056l2.056-11.782a.477.477,0,0,1,.389-.333h2.723a.263.263,0,0,1,.278.278v.056l-.778,4.279h3.5l.778-4.279a.477.477,0,0,1,.389-.333H93.56c.167,0,.278.111.278.333Z" transform="translate(-36.116 -21.323)" fill="#888d92"/>
      <path id="Path_8" data-name="Path 8" d="M113.071,63.16h-2.834a.311.311,0,0,1-.278-.333l-.056-2.334h-3l-.889,2.334a.477.477,0,0,1-.389.333h-3a.2.2,0,0,1-.222-.222c0-.056,0-.111.056-.111L106.513,52.6c.667-1.667,2-2,3.557-2,1.612,0,2.779.333,2.89,2l.445,10.226h0a.32.32,0,0,1-.333.333M109.792,53.6c0-.167,0-.222-.167-.222s-.167.111-.222.222l-1.556,4.224h2Z" transform="translate(-45.401 -21.235)" fill="#888d92"/>
      <path id="Path_9" data-name="Path 9" d="M137.549,51.178l-4.057,10.282c-.667,1.667-2,2-3.612,2s-2.779-.333-2.834-2L126.6,51.233h0a.359.359,0,0,1,.333-.333h2.834a.311.311,0,0,1,.278.333l.111,9.226c0,.167,0,.222.167.222.111,0,.167-.111.222-.222l3.39-9.226a.477.477,0,0,1,.389-.333h3c.111,0,.222.056.222.167v.111" transform="translate(-56.152 -21.368)" fill="#888d92"/>
      <path id="Path_10" data-name="Path 10" d="M153.915,63.16h-2.834a.311.311,0,0,1-.278-.333l-.056-2.334h-3l-.889,2.334a.477.477,0,0,1-.389.333h-2.946a.2.2,0,0,1-.222-.222c0-.056,0-.111.056-.111L147.413,52.6c.667-1.667,2-2,3.557-2,1.612,0,2.779.333,2.89,2l.445,10.226h0c-.111.167-.222.333-.389.333M150.636,53.6c0-.167,0-.222-.167-.222s-.167.111-.222.222l-1.556,4.224h2Z" transform="translate(-63.57 -21.235)" fill="#888d92"/>
      <path id="Path_11" data-name="Path 11" d="M175.426,51.267l-.389,2.167q-.083.333-.333.333h-.056c-.667-.056-1.389-.167-2.334-.167-.889,0-1.778.333-2.167,2.5l-.333,1.723a7.812,7.812,0,0,0-.111,1c0,1.278.667,1.5,1.389,1.5.945,0,1.667-.111,2.39-.167h.056c.167,0,.278.056.278.222v.111l-.389,2.167c-.056.222-.111.278-.445.389a7.94,7.94,0,0,1-2.39.278c-2.5,0-4.39-1.389-4.39-4.168a10.8,10.8,0,0,1,.111-1.334l.333-1.723c.778-4.224,2.946-5.5,6.113-5.5a7.167,7.167,0,0,1,2.334.333c.167.056.333.111.333.278v.056Z" transform="translate(-73.743 -21.235)" fill="#888d92"/>
      <path id="Path_12" data-name="Path 12" d="M187.8,51.133l-2.056,11.782a.416.416,0,0,1-.389.333h-2.779c-.222,0-.278-.167-.278-.333l2.056-11.782a.477.477,0,0,1,.389-.333h2.779c.167,0,.278.111.278.333" transform="translate(-80.896 -21.323)" fill="#888d92"/>
      <path id="Path_13" data-name="Path 13" d="M200.325,60.8l-.389,2.056c-.056.222-.167.278-.389.333a17.772,17.772,0,0,1-2.668.222c-1.89,0-3.779-.611-3.779-2.89,0-.278.056-.556.056-.889l1.5-8.5a.484.484,0,0,1,.445-.333h2.723a.263.263,0,0,1,.278.278v.056l-1.5,8.5c0,.111-.056.222-.056.333,0,.389.222.5.667.5h2.723c.278,0,.389.167.389.333Z" transform="translate(-85.693 -21.323)" fill="#888d92"/>
      <path id="Path_14" data-name="Path 14" d="M213.7,51.133l-2.056,11.782a.416.416,0,0,1-.389.333h-2.779c-.222,0-.278-.167-.278-.333l2.056-11.782a.477.477,0,0,1,.389-.333h2.779c.167,0,.278.111.278.333" transform="translate(-92.401 -21.323)" fill="#888d92"/>
      <path id="Path_15" data-name="Path 15" d="M230.838,51.233l-4.724,5.836,2.612,5.891a.194.194,0,0,0,.056.111.254.254,0,0,1-.278.222h-3.279c-.222,0-.278-.111-.278-.278l-2.112-5.446-.945,5.446a.477.477,0,0,1-.389.333h-2.723a.263.263,0,0,1-.278-.278v-.056l2.056-11.782a.477.477,0,0,1,.389-.333h2.723a.263.263,0,0,1,.278.278v.056L223,56.458l4.057-5.28a.5.5,0,0,1,.445-.278h3.335c.111,0,.222.056.222.167-.111,0-.167.111-.222.167" transform="translate(-96.977 -21.368)" fill="#888d92"/>
      <path id="Path_16" data-name="Path 16" d="M57.093,83.9c.222,0,.278.111.278.333l-1.334,7.5c-.667,3.724-2.612,4.724-5.391,4.724-2.39,0-3.946-1.112-3.946-3.5a4.767,4.767,0,0,1,.111-1.223l1.334-7.5a.477.477,0,0,1,.389-.333H50.2c.222,0,.333.111.278.333l-1.389,7.5a5.42,5.42,0,0,0-.111,1.278c0,1.112.5,1.556,1.945,1.556,1.834,0,2.39-.834,2.779-2.834l1.334-7.5c.056-.167.111-.333.389-.333h1.667Z" transform="translate(-20.657 -36.028)" fill="#888d92"/>
      <path id="Path_17" data-name="Path 17" d="M68.194,85.9c-.222,0-.278-.111-.278-.278l.278-1.389a.416.416,0,0,1,.389-.333h6.725c.556,0,.834.222.778.611l-.167.945a1.514,1.514,0,0,1-.333.667l-6.558,7.836a.421.421,0,0,0-.111.222.12.12,0,0,0,.111.111h5.113a.263.263,0,0,1,.278.278L74.2,95.96c-.056.222-.111.333-.389.333H66.416c-.556,0-.778-.167-.722-.611l.167-.945a1.124,1.124,0,0,1,.333-.611l6.669-7.947a.2.2,0,0,0,.056-.167c0-.056-.056-.111-.167-.111Z" transform="translate(-29.091 -36.028)" fill="#888d92"/>
      <path id="Path_18" data-name="Path 18" d="M92.693,96.216H90.97c-.222,0-.278-.111-.278-.278L90.47,92.77H86.635L85.3,95.938a.37.37,0,0,1-.389.278H83.078a.254.254,0,0,1-.278-.222.2.2,0,0,1,.056-.167l4.613-10.5A2.516,2.516,0,0,1,90.08,83.6a1.835,1.835,0,0,1,2.056,1.723l.889,10.5v.056a.293.293,0,0,1-.333.333M90.08,85.879c0-.222-.056-.278-.222-.278s-.222.056-.333.278l-2.056,4.946h2.946Z" transform="translate(-36.694 -35.894)" fill="#888d92"/>
      <path id="Path_19" data-name="Path 19" d="M113.492,84.289l-3.612,5.78a3,3,0,0,1-1.223,1.278l-.834,4.668a.477.477,0,0,1-.389.333h-1.667c-.167,0-.278-.111-.278-.333l.834-4.668c-.333-.167-.611-.5-.834-1.278l-1.5-5.78a.281.281,0,0,1,.278-.389h1.778c.167,0,.278.056.278.278l1.167,5c.056.278.111.278.222.278.167,0,.222,0,.389-.278l2.89-5a.458.458,0,0,1,.445-.278h1.89a.2.2,0,0,1,.222.222.2.2,0,0,0-.056.167" transform="translate(-46.1 -36.028)" fill="#888d92"/>
      <path id="Path_20" data-name="Path 20" d="M128.97,83.933c.167.056.278.111.278.333l-.222,1.223c-.056.222-.056.333-.389.278a30.807,30.807,0,0,0-3.279-.167c-.945,0-2,.278-2,1.278,0,.611.278.889,1.112,1.445l1.834,1.112a3.252,3.252,0,0,1,1.778,3c0,2.779-2.334,3.89-5.057,3.89a13.537,13.537,0,0,1-2.946-.278c-.167-.056-.278-.111-.278-.333l.222-1.223c.056-.167.111-.333.389-.333a26.919,26.919,0,0,0,2.946.167c1.167,0,2.223-.389,2.223-1.556,0-.611-.278-1-1.167-1.612l-2-1.334a3.275,3.275,0,0,1-1.5-2.834c0-2.668,2.39-3.39,4.78-3.39a30.352,30.352,0,0,1,3.279.333" transform="translate(-53.131 -35.894)" fill="#888d92"/>
      <path id="Path_21" data-name="Path 21" d="M144.993,96.171H143.27c-.222,0-.278-.111-.278-.278l-.167-3.223h-3.89L137.6,95.838a.37.37,0,0,1-.389.278h-1.834a.254.254,0,0,1-.278-.222.2.2,0,0,1,.056-.167l4.613-10.5a2.516,2.516,0,0,1,2.612-1.723,1.835,1.835,0,0,1,2.056,1.723l.889,10.5v.056c0,.222-.056.389-.333.389M142.38,85.834c0-.222-.056-.278-.222-.278s-.222.056-.333.278l-2.056,4.946h2.946Z" transform="translate(-59.928 -35.85)" fill="#888d92"/>
      <path id="Path_22" data-name="Path 22" d="M167.673,83.856c.167,0,.333.056.278.333l-2.056,11.449a.824.824,0,0,1-.778.667h-1.556c-.389,0-.778,0-.945-.611l-2.39-8.17c-.056-.111-.056-.111-.111-.111a.12.12,0,0,0-.111.111l-1.5,8.392c-.056.167-.056.333-.389.333h-1.445a.259.259,0,0,1-.278-.333l2-11.449a.824.824,0,0,1,.778-.667h1.667c.333,0,.5.111.611.556l2.5,8.614c0,.111.056.111.111.111s.111-.056.111-.167l1.556-8.781c.056-.167.111-.333.389-.333h1.556Z" transform="translate(-69.381 -35.983)" fill="#888d92"/>
      <path id="Path_23" data-name="Path 23" d="M186.037,96.171h-1.723c-.222,0-.278-.111-.278-.278l-.167-3.223h-3.835L178.7,95.838a.37.37,0,0,1-.389.278h-1.834a.254.254,0,0,1-.278-.222.2.2,0,0,1,.056-.167l4.613-10.5A2.516,2.516,0,0,1,183.48,83.5a1.835,1.835,0,0,1,2.056,1.723l.889,10.5v.056c0,.222-.056.389-.389.389m-2.612-10.337c0-.222-.056-.278-.222-.278s-.222.056-.333.278l-2.056,4.946h2.946Z" transform="translate(-78.186 -35.85)" fill="#888d92"/>
      <path id="Path_24" data-name="Path 24" d="M206.837,84.289l-3.557,5.78a3,3,0,0,1-1.223,1.278l-.834,4.668a.477.477,0,0,1-.389.333h-1.667c-.167,0-.278-.111-.278-.333l.834-4.668c-.333-.167-.611-.5-.834-1.278l-1.5-5.78a.281.281,0,0,1,.278-.389h1.778c.167,0,.278.056.278.278l1.167,5c.056.278.111.278.222.278.167,0,.222,0,.389-.278l2.89-5a.458.458,0,0,1,.445-.278h1.89a.2.2,0,0,1,.222.222c-.056.056-.056.111-.111.167" transform="translate(-87.592 -36.028)" fill="#888d92"/>
      <path id="Path_25" data-name="Path 25" d="M217.913,81.146c.222,0,.333.111.278.333l-2.056,11.782c-.056.167-.056.333-.389.333h-1.667c-.278,0-.278-.167-.278-.333l2.056-11.782c.056-.167.111-.333.389-.333Zm.778-3.112-.278,1.612a.477.477,0,0,1-.389.333h-1.5a.263.263,0,0,1-.278-.278v-.056l.278-1.612a.477.477,0,0,1,.389-.333h1.5c.167,0,.278.111.278.333Z" transform="translate(-94.889 -33.273)" fill="#888d92"/>
      <path id="Path_26" data-name="Path 26" d="M226.613,81.146c.222,0,.333.111.278.333l-2.056,11.782c-.056.167-.056.333-.389.333h-1.667c-.278,0-.278-.167-.278-.333l2.056-11.782c.056-.167.111-.333.389-.333Zm.834-3.112-.278,1.612a.477.477,0,0,1-.389.333h-1.5A.263.263,0,0,1,225,79.7v-.056l.278-1.612a.477.477,0,0,1,.389-.333h1.5c.167,0,.278.111.278.333Z" transform="translate(-98.754 -33.273)" fill="#888d92"/>
    </g>
  </g>
</svg>
